<svg width="269" height="257" viewBox="0 0 269 257" fill="none" xmlns="http://www.w3.org/2000/svg">
<path d="M125.482 22.2995C125.482 69.7608 124.233 67.4631 124.233 124.716L207.083 64.3485C188.348 43.9485 169.614 25.2154 125.482 22.2995Z" fill="#005824"/>
<path d="M207.347 63.9353C168.916 91.7856 169.762 91.1657 123.402 124.762L184.186 208.396C239.973 161.768 230.882 101.381 207.347 63.9353Z" fill="#00B74A"/>
<path d="M185.554 208.533C157.625 170.159 158.246 171.004 124.555 124.713L93.4255 220.472C119.649 228.798 146.71 228.798 185.554 208.533Z" fill="#FF953D"/>
<path d="M94.2431 220.056C109.295 175.045 106.334 179.055 124.491 124.757L21.3788 124.757C21.3788 170.93 53.4389 208.816 94.2431 220.056Z" fill="#FFBF00"/>
<path d="M21.8199 124.715L124.233 124.715L125.66 22.1912C77.4135 21.7045 26.3962 58.518 21.8199 124.715Z" fill="#798CFF"/>
<circle cx="123.819" cy="125.133" r="101.166" stroke="black" stroke-width="5"/>
</svg>
